<?xml version="1.0" encoding="UTF-8"?>
<svg version="1.1" xmlns="http://www.w3.org/2000/svg" width="512" height="512">
<path d="M0 0 C3.80111272 0.00477583 7.60217697 -0.00781684 11.40327358 -0.01801741 C18.83005833 -0.03512595 26.25675817 -0.03606193 33.68355748 -0.03080451 C39.72706295 -0.02674619 45.77054352 -0.02822599 51.81404781 -0.03355277 C52.67756895 -0.03430119 53.54109008 -0.03504961 54.43077852 -0.03582071 C56.18561735 -0.03735236 57.94045618 -0.0388907 59.69529501 -0.04043568 C76.11541414 -0.05413232 92.53548549 -0.04874334 108.95560351 -0.03725047 C123.93699742 -0.02732408 138.91826771 -0.04025353 153.89964256 -0.06418466 C169.32718778 -0.0886405 184.75467558 -0.09816746 200.18223977 -0.09153193 C208.82571492 -0.08805369 217.46909514 -0.09017876 226.1125555 -0.10778296 C233.47146866 -0.12258649 240.83022002 -0.1230351 248.18913028 -0.10571205 C251.93451327 -0.09726556 255.67960828 -0.09489408 259.4249754 -0.1103636 C292.57553815 -0.23733208 322.68919429 5.25067843 347.88963223 28.40683305 C348.37915371 28.85397661 348.86867519 29.30112016 349.37303066 29.76181352 C364.9697776 44.16679888 376.60158361 62.76061338 381.88963223 83.40683305 C382.2608827 84.70579452 382.2608827 84.70579452 382.63963318 86.03099763 C385.90237389 99.34329364 385.32510225 112.96829257 385.29646528 126.58488023 C385.29169456 130.41325812 385.30427771 134.24158763 385.31448269 138.06994951 C385.33160107 145.55201522 385.33252513 153.0339967 385.32726979 160.51607689 C385.32321329 166.6039512 385.32468912 172.69180079 385.33001804 178.77967393 C385.33076647 179.64917 385.33151489 180.51866607 385.33228599 181.4145105 C385.33381762 183.1814306 385.33535596 184.9483507 385.33690096 186.71527079 C385.35060118 203.25267076 385.3452061 219.79002331 385.33371574 236.32742217 C385.32378917 251.41948582 385.3367185 266.51142676 385.36064994 281.60347149 C385.3850994 297.14059133 385.39463428 312.67765417 385.38799721 328.21479285 C385.38451753 336.92140796 385.38665364 345.62792883 385.40424824 354.33452928 C385.41904373 361.74729365 385.41951068 369.15989741 385.40217733 376.57265887 C385.39372431 380.34626401 385.39137587 384.11958316 385.40682888 387.89317262 C385.53133217 420.67758179 379.76300917 450.51413711 356.88963223 475.40683305 C356.44248867 475.89635454 355.99534512 476.38587602 355.53465176 476.89023149 C336.48762837 497.51306422 310.00604376 511.03365561 281.77271557 512.57724273 C273.44646509 512.8409541 265.11769719 512.82141338 256.78830767 512.79900706 C253.00636223 512.79214558 249.22445642 512.8027325 245.44251919 512.81094682 C238.0563095 512.82421156 230.67019183 512.82143906 223.2839787 512.8127089 C217.27527414 512.80590395 211.26659516 512.80502771 205.25788784 512.80828035 C204.39918675 512.80874005 203.54048566 512.80919975 202.65576333 512.80967338 C200.91074283 512.81063266 199.16572234 512.8116053 197.42070186 512.81259115 C181.09890578 512.82112377 164.77716044 512.81134443 148.45537269 512.79519005 C134.48323851 512.78178881 120.51117912 512.78411751 106.53904629 512.79794633 C90.27135934 512.81403988 74.00371675 512.8203 57.73602295 512.81110954 C55.99780751 512.810154 54.25959206 512.80921089 52.52137661 512.80828035 C51.23888335 512.80758611 51.23888335 512.80758611 49.93048114 512.80687784 C43.93649705 512.80429925 37.94254135 512.8086344 31.94856167 512.81571901 C24.63315748 512.82417631 17.31784972 512.82176572 10.00245643 512.80587678 C6.27773823 512.7980505 2.55318018 512.79480463 -1.17153645 512.80482423 C-38.19733331 512.89598965 -68.83013979 505.49193032 -95.86036777 479.09433305 C-109.32933929 465.48354084 -119.35438777 447.97568805 -124.11036777 429.40683305 C-124.35786809 428.54085874 -124.6053684 427.67488443 -124.86036873 426.78266847 C-128.12310944 413.47037246 -127.5458378 399.84537354 -127.51720083 386.22878587 C-127.51243011 382.40040799 -127.52501326 378.57207847 -127.53521824 374.7437166 C-127.55233662 367.26165088 -127.55326068 359.77966941 -127.54800534 352.29758921 C-127.54394884 346.2097149 -127.54542467 340.12186532 -127.55075359 334.03399217 C-127.55187623 332.72974807 -127.55187623 332.72974807 -127.55302154 331.3991556 C-127.55455317 329.6322355 -127.55609151 327.86531541 -127.55763651 326.09839532 C-127.57133673 309.56099535 -127.56594165 293.0236428 -127.55445129 276.48624393 C-127.54452472 261.39418029 -127.55745405 246.30223934 -127.58138549 231.21019462 C-127.60583494 215.67307477 -127.61536983 200.13601194 -127.60873276 184.59887326 C-127.60525308 175.89225814 -127.60738919 167.18573728 -127.62498379 158.47913682 C-127.63977928 151.06637246 -127.64024623 143.6537687 -127.62291288 136.24100724 C-127.61445986 132.4674021 -127.61211142 128.69408294 -127.62756443 124.92049348 C-127.75206772 92.13608431 -121.98374472 62.29952899 -99.11036777 37.40683305 C-98.66322422 36.91731157 -98.21608067 36.42779008 -97.75538731 35.92343462 C-71.02432539 6.98084303 -37.96727055 -0.08053395 0 0 Z " fill="#AC47DB" transform="translate(127.11036777496338,-0.40683305263519287)"/>
<path d="M0 0 C0.33 0 0.66 0 1 0 C0.40979137 10.7639425 -0.6244992 21.43631532 -1.88208008 32.14111328 C-2.17572177 34.64939078 -2.46041772 37.15855296 -2.74414062 39.66796875 C-5.12968074 60.16989494 -8.14558716 80.54337462 -11 101 C22.66 101 56.32 101 91 101 C87.31464874 105.91380168 83.67970795 110.67638754 79.6875 115.3125 C76.24788656 119.34096031 72.84217552 123.38978415 69.5 127.5 C63.95807902 134.30413786 58.26691077 140.97975878 52.58398438 147.66601562 C47.09729486 154.12406926 41.66222871 160.61497616 36.3125 167.1875 C33.27632634 170.88014364 30.1815003 174.52121788 27.0859375 178.1640625 C24.18755177 181.5805954 21.328449 185.02504838 18.5 188.5 C14.75212202 193.1045358 10.93016556 197.64019191 7.0859375 202.1640625 C4.18755177 205.5805954 1.328449 209.02504838 -1.5 212.5 C-4.7882374 216.53983452 -8.12731461 220.53083277 -11.5 224.5 C-17.2728016 231.29658906 -22.9262469 238.18693609 -28.5234375 245.12890625 C-29.34070313 246.13824219 -30.15796875 247.14757812 -31 248.1875 C-31.7425 249.10917969 -32.485 250.03085937 -33.25 250.98046875 C-33.8275 251.64691406 -34.405 252.31335938 -35 253 C-35.33 253 -35.66 253 -36 253 C-35.39441632 243.2614376 -34.44784643 233.61848569 -33.2578125 223.93359375 C-33.08683042 222.52420365 -32.91609029 221.11478417 -32.74557495 219.70533752 C-32.38967191 216.76968054 -32.0314484 213.83431968 -31.67138672 210.89916992 C-31.21832217 207.20503677 -30.77020672 203.5103251 -30.32379341 199.81538296 C-29.97199287 196.90714008 -29.61789843 193.99917978 -29.26314926 191.09129524 C-29.01908706 189.08860874 -28.77649103 187.08574372 -28.53396606 185.08287048 C-27.17464991 174.02703796 -25.57635742 163.03450193 -24 152 C-57.66 152 -91.32 152 -126 152 C-121.50385126 145.25577689 -121.50385126 145.25577689 -119.30078125 142.73828125 C-118.81859131 142.18261475 -118.33640137 141.62694824 -117.83959961 141.05444336 C-117.33565674 140.47960205 -116.83171387 139.90476074 -116.3125 139.3125 C-115.23599824 138.07116249 -114.16048591 136.82896629 -113.0859375 135.5859375 C-112.29654785 134.67279785 -112.29654785 134.67279785 -111.49121094 133.74121094 C-108.69063826 130.47112509 -105.99117022 127.11932535 -103.27734375 123.77734375 C-100.71795946 120.65603633 -98.11406209 117.5754997 -95.5 114.5 C-92.12716411 110.53096457 -88.78823355 106.53982979 -85.5 102.5 C-81.75212202 97.8954642 -77.93016556 93.35980809 -74.0859375 88.8359375 C-71.18755177 85.4194046 -68.328449 81.97495162 -65.5 78.5 C-61.75212202 73.8954642 -57.93016556 69.35980809 -54.0859375 64.8359375 C-51.18755177 61.4194046 -48.328449 57.97495162 -45.5 54.5 C-41.75212202 49.8954642 -37.93016556 45.35980809 -34.0859375 40.8359375 C-31.18755177 37.4194046 -28.328449 33.97495162 -25.5 30.5 C-21.75935103 25.90434555 -17.94542169 21.37686578 -14.10791016 16.86230469 C-10.23993955 12.3038692 -6.448651 7.6876628 -2.6796875 3.046875 C-1 1 -1 1 0 0 Z " fill="#FEFDFE" transform="translate(267,140)"/>
</svg>
